<svg xmlns="http://www.w3.org/2000/svg" viewBox="0 0 50 50"><title>i-1</title><path d="M16.18,35.33l-.74-.73-1-1-.12-.13L14,33.15l-.74.73h0l-1.5,1.5a1.36,1.36,0,0,0-1.67.19l-.27.27a1.36,1.36,0,0,0,0,1.93h0l2.48,2.46a1.37,1.37,0,0,0,1.93,0l.28-.27a1.4,1.4,0,0,0,.4-1,1.32,1.32,0,0,0-.2-.69l.68-.68,1.56-1.56-.49-.49Z"/><path d="M19.8,26.4l-2.33,2.91L17.16,29a1.37,1.37,0,0,0-1.93,0l-.28.27a1.37,1.37,0,0,0,0,1.92h0l.52.49-.73.72.37.37.37.37L17,34.6l.37.37.37.36.73-.72.52.52a1.39,1.39,0,0,0,1.93,0l.27-.27a1.36,1.36,0,0,0,0-1.93h0l-.3-.3,3.37-2.71Z"/><path d="M39.05,9.36H34.18a1.56,1.56,0,0,0-1.31.68l-7.2,9,2.15,2.69.67.81,1.9,2.38,9.5-7.62A1.55,1.55,0,0,0,40.61,16V10.92A1.56,1.56,0,0,0,39.05,9.36Z"/><path d="M39.94,35.58a1.36,1.36,0,0,0-1.67-.19l-1.5-1.5h0L36,33.15l-.37.36-.12.13-1,1-.74.73-.25.25-.49.49,1.56,1.56h0l.68.68a1.32,1.32,0,0,0-.2.69,1.4,1.4,0,0,0,.4,1l.28.27a1.37,1.37,0,0,0,1.93,0l2.48-2.46h0a1.36,1.36,0,0,0,0-1.93Z"/><path d="M34.56,33.14l.38-.36.37-.37-.75-.72.52-.49a1.36,1.36,0,0,0,0-1.92h0L34.81,29a1.38,1.38,0,0,0-1.94,0l-.31.31L17.15,10.05a1.58,1.58,0,0,0-1.33-.69H11a1.56,1.56,0,0,0-1.56,1.56V16a1.55,1.55,0,0,0,.72,1.33l19.1,15.3-.31.3a1.37,1.37,0,0,0,0,1.93h0l.27.28a1.4,1.4,0,0,0,1.94,0l.52-.52.72.72.37-.37.37-.37Z"/></svg>