<svg xmlns="http://www.w3.org/2000/svg" viewBox="0 0 50 50"><title>i-2</title><path d="M6.73,38.53H8.94V13.19a.41.41,0,0,1,.32-.4L29.54,8.47a.41.41,0,0,1,.49.4V38.53h1.49V16.78a.41.41,0,0,1,.51-.39l8.7,2.18A.42.42,0,0,1,41,19V38.53H43.3v3H6.7Zm27.84-6.24h3.31V28.93H34.57Zm0-5.7h3.31V23.28H34.57Zm-11,4.51h3.31V27.79H23.56Zm0-5.72h3.31V22.07H23.56Zm0-5.74h3.31V16.33H23.56ZM17.82,39.43h3.31V33.54H17.82Zm0-8.33h3.31V27.79H17.82Zm0-5.72h3.31V22.07H17.82Zm0-5.74h3.31V16.33H17.82ZM12.08,31.1h3.31V27.79H12.08Zm0-5.72h3.31V22.07H12.08Zm0-5.74h3.31V16.33H12.08Z"/></svg>