<svg xmlns="http://www.w3.org/2000/svg" viewBox="0 0 50 50"><title>i-3</title><path d="M25,8.49A16.51,16.51,0,1,0,41.51,25,16.49,16.49,0,0,0,25,8.49Zm4.74,23A5.5,5.5,0,0,1,27,33.29c-.47.15-.69.4-.65.87s0,1,0,1.45a.62.62,0,0,1-.65.69H24.13c-.47,0-.69-.25-.69-.73V34.49c0-.8,0-.83-.79-.94a9.43,9.43,0,0,1-2.79-.8c-.69-.33-.76-.51-.58-1.23.14-.54.29-1.09.47-1.63s.25-.58.43-.58a1.08,1.08,0,0,1,.47.18,9.24,9.24,0,0,0,3.12.94,2.46,2.46,0,0,0,.54,0,4.2,4.2,0,0,0,1.49-.29,1.59,1.59,0,0,0,.36-2.79A5.3,5.3,0,0,0,25,26.7c-1.05-.47-2.17-.83-3.19-1.41A4.45,4.45,0,0,1,19.28,21a4.7,4.7,0,0,1,3.47-4.38c.84-.33.87-.29.87-1.2v-.9c0-.65.15-.8.8-.8h.76c1.27,0,1.27,0,1.27,1.41,0,1,0,1,1,1.16a9.65,9.65,0,0,1,2.21.65.68.68,0,0,1,.44.87c-.18.62-.33,1.23-.55,1.85-.11.36-.25.54-.47.54a1.05,1.05,0,0,1-.47-.14,7,7,0,0,0-3.08-.69h-.4a2.71,2.71,0,0,0-.94.18,1.33,1.33,0,0,0-.32,2.36,7.83,7.83,0,0,0,1.52.86A25.48,25.48,0,0,1,28.15,24,4.91,4.91,0,0,1,29.74,31.52Z"/></svg>