<svg xmlns="http://www.w3.org/2000/svg" viewBox="0 0 50 50"><title>i-4</title><path d="M43,28.28,32.21,17.53l3.2-3.2a1.47,1.47,0,0,0,0-2.06L30.93,7.79a1.46,1.46,0,0,0-2.08,0l-6.52,6.52-1.59,5.24-.28.89L23,23.11l1-.3,4.35-1.43L29.69,20,40.44,30.79a.69.69,0,0,0,1,0L43,29.25A.68.68,0,0,0,43,28.28Z"/><path d="M33.37,28.38H24.92a.6.6,0,0,0-.61.6v4.37a.13.13,0,0,0,0,.06A.6.6,0,0,0,25,34c5.56-.55,8-3.08,9-4.53a.7.7,0,0,0,.11-.37A.67.67,0,0,0,33.37,28.38Z"/><path d="M20.91,36.13a.41.41,0,0,0-.31-.34h1.52a.56.56,0,0,0,.57-.57V28.75a.57.57,0,0,0-.57-.58.81.81,0,0,1-.81-.81v-.07a.57.57,0,0,0-.58-.57H7.41a.58.58,0,0,0-.57.57v3.3a.58.58,0,0,0,.3.5,6.81,6.81,0,0,1,3.23,4.18.72.72,0,0,0,.7.52h.44a.41.41,0,0,0-.31.34,6,6,0,0,1-2.5,4.73.78.78,0,0,0-.38.69v.51h0a.58.58,0,0,0,.58.58h3.58A.56.56,0,0,0,13,42.3a3.05,3.05,0,0,1,3-1.71A3,3,0,0,1,19.1,42.3a.56.56,0,0,0,.53.34h3.58a.58.58,0,0,0,.58-.58v-.52a.78.78,0,0,0-.38-.68A6,6,0,0,1,20.91,36.13Z"/></svg>